<svg xmlns="http://www.w3.org/2000/svg" xml:space="preserve" fill-rule="evenodd" width="1772" height="1772" clip-rule="evenodd" image-rendering="optimizeQuality" shape-rendering="geometricPrecision" text-rendering="geometricPrecision" version="1.1" viewBox="0 0 178168 178168"><circle fill="#f7f7f7" cx="88683" cy="88683" r="88583" stroke="#a6a6a6" stroke-miterlimit="22.926" stroke-width="1250"/><path d="m91395 12957 6759 22c10666 0 19312 8646 19312 19312v72079c0 5866 4755 10621 10621 10621s10622-4755 10622-10621-4756-10622-10622-10622c-978 0-1951 141-2850 388l-2254-8396c1631-448 3330-682 5104-682 10666 0 19312 8646 19312 19312 0 10665-8646 19312-19312 19312-9269 0-17021-6551-18890-15261-6662 8815-16847 14874-28423 16107l-2-8752c15811-2122 28003-15666 28003-32058 0-16386-12199-29928-28002-32058v13237c8569 1975 14967 9653 14967 18821h-8690c0-5866-4756-10621-10622-10621s-10621 4755-10621 10621h-8691c0-9165 6402-16844 14967-18821V32269c0-10665 8646-19312 19312-19312zm6759 8712c5866 0 10621 4756 10621 10622v26171c-6667-8518-16665-14354-28002-15554V32269c0-5866 4756-10621 10622-10621l6759 21" fill="#000"/><path d="M96719 119474c-5958 3367-12853 5297-20185 5297-22673 0-41144-18380-41144-41053 0-22672 18471-41052 41144-41052 7493 0 14542 2023 20589 5529l-4389 7602c-4759-2764-10301-4433-16200-4433-17825 0-32453 14529-32453 32354 0 17826 14628 32276 32453 32276 5742 0 11126-1491 15797-4120l4388 7600" fill="#fc0303"/><path d="M65807 83718c0-5866 4755-10621 10621-10621S87050 77852 87050 83718 82294 94340 76428 94340s-10621-4756-10621-10622zm6276-32058c-15812 2121-28002 15666-28002 32058 0 16391 12192 29935 28002 32058l-1-13237c-8575-1970-14966-9648-14966-18821 0-9165 6402-16844 14967-18821V51660zm8689 64116c15811-2122 28003-15666 28003-32058 0-16386-12199-29928-28002-32058v13237c8569 1975 14967 9653 14967 18821 0 9173-6390 16853-14966 18822l-2 13236zm17382-94107c5866 0 10621 4756 10621 10622v26171c-6667-8518-16665-14354-28002-15554V32269c0-5866 4756-10621 10622-10621l6759 21zM44083 135378l-1-26393c6673 8535 16644 14349 28001 15544v10849c0 5866-4755 10621-10622 10621h-6756c-5866 0-10622-4755-10622-10621" fill="#e6e6e6"/><path d="M72083 115776c-15810-2123-28002-15667-28002-32058 0-16392 12190-29937 28002-32058v-8753C51457 45074 35390 62519 35390 83718l3 51660c0 10665 8646 19311 19312 19311h6756c10666 0 19312-8646 19312-19311l1-32838c8576-1969 14966-9649 14966-18822h-8690c0 5866-4756 10622-10622 10622s-10621-4756-10621-10622h-8691c0 9173 6391 16851 14966 18821l1 13237zm-28000 19602-1-26393c6673 8535 16644 14349 28001 15544v10849c0 5866-4755 10621-10622 10621h-6756c-5866 0-10622-4755-10622-10621" fill="#fc0303"/><path d="M65807 83718c0-5866 4755-10621 10621-10621S87050 77852 87050 83718 82294 94340 76428 94340s-10621-4756-10621-10622zm-21726 0c0 16391 12192 29935 28002 32058l-1-13237c-8575-1970-14966-9648-14966-18821 0-75421-13035-30988-13035 0zm36691 32058c-4212 3458 115080-35391 2-13236l-2 13236zm-36689 19602-1-26393c6673 8535 16644 14349 28001 15544v10849c0 5866-4755 10621-10622 10621h-6756c-5866 0-10622-4755-10622-10621" fill="#f1c50e"/></svg>
