<svg xmlns="http://www.w3.org/2000/svg" xml:space="preserve" fill-rule="evenodd" clip-rule="evenodd" image-rendering="optimizeQuality" shape-rendering="geometricPrecision" text-rendering="geometricPrecision" version="1.1" viewBox="0 0 388504 495634">
  <defs>
    <linearGradient id="a" x1="198258" x2="198258" y1="107392" y2="487367" gradientUnits="userSpaceOnUse">
      <stop offset="0" stop-color="#ffe66d" stop-opacity="1"/>
      <stop offset="1" stop-color="#ffd66d" stop-opacity="1"/>
    </linearGradient>
    <linearGradient id="b" x1="297414" x2="66382" y1="124695" y2="141067" gradientUnits="userSpaceOnUse">
      <stop offset="0" stop-color="#7c879c" stop-opacity="1"/>
      <stop offset="1" stop-color="#626d83" stop-opacity="1"/>
    </linearGradient>
  </defs>
  <path d="M122054 192369c17977 39481 58688 59575 90927 44882 32233-14680 43802-58582 25826-98052C220830 99730 144902 2284 112657 16964c-32239 14680-8579 135935 9397 175404" fill="#62a50a"/>
  <path d="M261561 192369c-17978 39481-58689 59575-90921 44882-32239-14680-43803-58582-25826-98052C162791 99730 238725 2284 270958 16964c32239 14680 8579 135935-9397 175404" fill="#62a50a"/>
  <path d="M254798 163534c0 43377-28724 78532-64147 78532-35417 0-64140-35167-64140-78532C126511 120162 155222 0 190651 0c35430 0 64147 120150 64147 163534" fill="#79c90f"/>
  <path d="M204083 495622c94811 0 171708-27550 171708-152458 0-124901-76897-227392-171708-227392-94817 0-171651 102498-171651 227406 0 124907 76827 152457 171639 152457l12-12" fill="url(#a)"/>
  <path d="M206487 352625c-1573 0-3178-93-4802-287-10665-1217-18720-5770-23952-13531-1062-1562-643-3691 924-4752 1574-1049 3697-643 4752 924 4120 6100 10346 9560 19050 10552 8811 999 16334-1155 23034-6594 1462-1198 3615-974 4815 499 1186 1474 967 3616-506 4815-6843 5564-14667 8360-23316 8360v13" fill="#010101" fill-rule="nonzero"/>
  <path d="m148504 441516-30589-31833 21567-22941c1885-2011 1792-5158-219-7050-2004-1885-5151-1792-7050 212l-21211 22579-29572-30778c-1905-1985-5065-2054-7044-137-1986 1905-2054 5064-138 7050l29916 31139-14555 15479c-1879 2011-1792 5158 218 7050a4959.6 4959.6 0 00 3409 1361c1324 0 2660-524 3640-1579l14200-15111 30241 31470c980 1018 2285 1530 3596 1530 1243 0 2485-468 3453-1392 1985-1905 2054-5065 137-7050zm184190-69946c-1986-1905-5145-1848-7050 137l-29566 30778-21218-22579c-1885-2004-5046-2104-7050-212-2011 1879-2098 5039-218 7050l21573 22941-30596 31833c-1905 1985-1848 5145 138 7050 967 924 2210 1392 3460 1392 1311 0 2610-512 3590-1530l30241-31470 14199 15111c980 1055 2304 1579 3640 1579 1217 0 2454-449 3409-1361 2011-1879 2098-5039 219-7050L302910 409760l29922-31139c1905-1986 1848-5145-138-7050zm-99376-215454c-1835-1848-4827-1848-6675 0l-21966 21973-21974-21973c-1835-1848-4821-1848-6669 0-1848 1842-1848 4827 0 6675l21967 21966-13388 13394c-1854 1835-1854 4827 0 6675 918 924 2130 1380 3328 1380 1199 0 2417-456 3329-1380l13393-13394 13394 13394c924 924 2130 1380 3328 1380 1199 0 2417-456 3335-1380 1841-1836 1841-4827 0-6675l-13394-13394 21966-21966c1848-1836 1848-4827 0-6675h25" fill="#ecb732" fill-rule="nonzero"/>
  <path d="M301323 238738s-60344 6331-67050 26818c-6706 20487 5214 56247 43584 59226 38364 2972 69285-1860 78969-27199 9685-25321 10385-43241 9311-51034-1493-10802-46925-11177-64815-7824v13zm-194430 0c-17877-3353-63322-2978-64814 7824-1075 7780-375 25700 9310 51033 9684 25327 40593 30171 78969 27193 38358-2978 50278-38732 43584-59226-6706-20481-67050-26812-67050-26812v-12" fill="#101217" fill-rule="nonzero"/>
  <path d="M342671 219743c-25694 743-94229 16391-114717 21605-10102 2567-18214 2879-23840 2535-5619 350-13731 43-23840-2535-20487-5213-89016-20862-114717-21605-25700-742-46188-5213-45813 14899 382 20112 21230 68168 21230 68168s11177 25700 36878 31289c25700 5588 66069 3409 83809-11546 18988-16016 25700-47306 25700-47306s3023-9422 16766-8754c13737-668 16753 8754 16753 8754s6712 31290 25700 47306c17740 14955 58109 17134 83809 11546 25701-5589 36878-31289 36878-31289s20862-48042 21230-68168c375-20112-20113-15641-45813-14899h-13zM130358 324782c-38364 2972-69285-1860-78969-27199-9684-25321-10385-43241-9310-51034 1492-10802 46930-11177 64814-7824 0 0 60344 6331 67050 26819 6706 20487-5214 56247-43584 59226v12zm226468-27199c-9684 25326-40593 30171-78969 27199-38358-2978-50277-38739-43584-59226 6706-20487 67050-26818 67050-26818 17877-3353 63322-2978 64815 7824 1074 7780 375 25700-9311 51033v-12" fill="#2e3442" fill-rule="nonzero"/>
  <path d="M356415 273893c3597-9286 1967-18564-3628-20731-5600-2173-13050 3597-16647 12876-3596 9285-1973 18563 3628 20736 5601 2167 13051-3602 16647-12881zm-30028 14449c2341-6044 1280-12089-2367-13501-3653-1417-8505 2341-10847 8387-2341 6044-1280 12088 2367 13500 3646 1411 8505-2341 10847-8386zm9853 6256c1111-2872 387-5832-1617-6606-1998-774-4527 924-5638 3796-1112 2879-394 5832 1610 6607 2005 780 4527-924 5645-3797" fill="#fff" fill-opacity=".2" fill-rule="nonzero"/>
  <path d="M184064 33231 0 117983v4096l147356 31633 216739-84764v-4096" fill="#7b859b" fill-rule="nonzero"/>
  <path d="M355591 71245c7574 23216 8985 48254 3952 72189 2067 693 3759 2379 4353 4639 755 2904-512 5851-2916 7362 749 825 1398 1792 1936 2891 1642 3391 2167 7943 1174 12689-481 2278-1680 4295-3185 6031-593 700-1255 1349-1923 1955-881 774-1792 1480-2698 2110-2254 1561-4414 2623-5563 3147-549 250-881 375-881 375s-305-306-805-881c-850-955-2236-2635-3560-4745-575-911-1130-1905-1623-2965a22652 22652 0 01-862-2117c-849-2385-1249-4964-711-7487 1018-4846 3421-8885 6375-11302 937-768 1943-1380 2960-1792 37-19 81-31 119-50a6726.4 6726.4 0 01-787-1829c-937-3584 1211-7237 4776-8168 712-187 1417-256 2116-206 3228-15266 3853-31008 1780-46493-1168-8674-3172-17103-5926-25202l1899-150" fill="#ffd908" fill-rule="nonzero"/>
  <path d="M184077 37327 0 122079l147356 31633 216739-84764" fill="#576073" fill-rule="nonzero"/>
  <path d="M72844 201367c13906-7755 57004-30996 119295-35691 89047-6713 109435 5875 124002 9890 4402 1211 6943 2841 7243 4908l-45196-95617c-5850-12057-38376-18258-91039-16709-52657 3103-94474 34074-97153 44177l-24408 96809c-330-2348 2279-4995 7256-7780v12" fill="url(#b)" fill-rule="nonzero"/>
</svg>
